<mxfile host="app.diagrams.net" modified="2024-01-15T10:31:37.322Z" agent="Mozilla/5.0 (Windows NT 10.0; Win64; x64) AppleWebKit/537.36 (KHTML, like Gecko) Chrome/119.0.0.0 Safari/537.36" version="22.1.18" etag="BN8R5R_XZjXN4QDBQyzl" type="github">
  <diagram name="Trang-1" id="MmmzZIuUXuu7YskHqRJC">
    <mxGraphModel>
      <root>
        <mxCell id="0" />
        <mxCell id="1" parent="0" />
      </root>
    </mxGraphModel>
  </diagram>
</mxfile>
